<?xml version="1.0" encoding="UTF-8"?>
<!DOCTYPE svg PUBLIC "-//W3C//DTD SVG 1.1//EN" "http://www.w3.org/Graphics/SVG/1.1/DTD/svg11.dtd">
<svg xmlns="http://www.w3.org/2000/svg" version="1.1" width="300px" height="100px" style="shape-rendering:geometricPrecision; text-rendering:geometricPrecision; image-rendering:optimizeQuality; fill-rule:evenodd; clip-rule:evenodd" xmlns:xlink="http://www.w3.org/1999/xlink">
<g><path style="opacity:0.004" fill="#fefffe" d="M 63.5,3.5 C 63.8966,2.47498 64.5632,2.30831 65.5,3C 64.9056,3.46434 64.2389,3.63101 63.5,3.5 Z"/></g>
<g><path style="opacity:0.007" fill="#fefffe" d="M 68.5,2.5 C 70.2327,3.00764 70.566,3.84098 69.5,5C 64.5168,5.83104 64.1835,4.9977 68.5,2.5 Z"/></g>
<g><path style="opacity:0.004" fill="#fefffe" d="M 48.5,4.5 C 50.2884,3.37753 52.2884,3.21086 54.5,4C 52.5273,4.49546 50.5273,4.66212 48.5,4.5 Z"/></g>
<g><path style="opacity:0.004" fill="#fefffe" d="M 55.5,3.5 C 56.8333,4.16667 56.8333,4.16667 55.5,3.5 Z"/></g>
<g><path style="opacity:0.004" fill="#fefffe" d="M 72.5,5.5 C 73.8333,6.16667 73.8333,6.16667 72.5,5.5 Z"/></g>
<g><path style="opacity:0.004" fill="#fefffe" d="M 74.5,6.5 C 74.8966,5.47498 75.5632,5.30831 76.5,6C 75.9056,6.46434 75.2389,6.63101 74.5,6.5 Z"/></g>
<g><path style="opacity:0.004" fill="#fefffe" d="M 77.5,7.5 C 77.369,6.76109 77.5357,6.09442 78,5.5C 78.6917,6.43677 78.525,7.10343 77.5,7.5 Z"/></g>
<g><path style="opacity:0.004" fill="#fefffe" d="M 36.5,7.5 C 37.8333,8.16667 37.8333,8.16667 36.5,7.5 Z"/></g>
<g><path style="opacity:0.004" fill="#fefffe" d="M 77.5,7.5 C 78.525,7.10343 78.6917,6.43677 78,5.5C 77.5357,6.09442 77.369,6.76109 77.5,7.5 Z"/></g>
<g><path style="opacity:0.004" fill="#fefffe" d="M 73.5,9.5 C 74.8333,10.1667 74.8333,10.1667 73.5,9.5 Z"/></g>
<g><path style="opacity:0.004" fill="#fefffe" d="M 73.5,10.5 C 72.8333,11.1667 72.8333,11.1667 73.5,10.5 Z"/></g>
<g><path style="opacity:0.004" fill="#fefffe" d="M 43.5,13.5 C 44.2891,13.7828 44.9558,14.2828 45.5,15C 44.184,15.5281 43.5173,15.0281 43.5,13.5 Z"/></g>
<g><path style="opacity:0.004" fill="#fefffe" d="M 78.5,16.5 C 79.8333,17.1667 79.8333,17.1667 78.5,16.5 Z"/></g>
<g><path style="opacity:0.008" fill="#fefffe" d="M 100.5,16.5 C 103.001,16.5109 103.168,17.1776 101,18.5C 100.536,17.9056 100.369,17.2389 100.5,16.5 Z"/></g>
<g><path style="opacity:0.04" fill="#f6f7fa" d="M 78.5,17.5 C 83.5819,25.4182 89.9152,32.2515 97.5,38C 94.2741,44.7268 89.2741,49.5602 82.5,52.5C 82.5,52.1667 82.5,51.8333 82.5,51.5C 87.3616,47.8216 91.1949,43.4883 94,38.5C 92.9609,37.2899 91.7942,36.2899 90.5,35.5C 90.5,34.8333 90.1667,34.5 89.5,34.5C 85.5,30.1667 81.5,25.8333 77.5,21.5C 75.6531,20.4271 73.6531,20.4271 71.5,21.5C 69.0521,20.5269 66.3854,20.1936 63.5,20.5C 63.1667,19.1667 62.8333,19.1667 62.5,20.5C 53.3178,20.1734 44.3178,20.5067 35.5,21.5C 34.8333,21.5 34.5,21.8333 34.5,22.5C 31.3125,20.3433 27.9792,20.01 24.5,21.5C 23.4265,20.7494 23.2599,19.7494 24,18.5C 34.1512,19.3086 43.8179,19.6419 53,19.5C 61.4993,18.8195 69.9993,18.1528 78.5,17.5 Z"/></g>
<g><path style="opacity:0.052" fill="#fefffe" d="M 105.5,23.5 C 105.631,22.6236 105.298,21.9569 104.5,21.5C 103.511,25.1073 103.177,28.774 103.5,32.5C 102.4,34.2774 101.566,36.2774 101,38.5C 100.346,39.6956 99.8457,39.6956 99.5,38.5C 100.074,36.9411 100.74,35.4411 101.5,34C 101.53,30.0339 101.364,25.8672 101,21.5C 99.3335,22.3402 99.1669,21.8402 100.5,20C 102.167,19.3333 103.833,19.3333 105.5,20C 106.791,21.2917 106.791,22.4583 105.5,23.5 Z"/></g>
<g><path style="opacity:0.881" fill="#c0c3de" d="M 35.5,21.5 C 44.3178,20.5067 53.3178,20.1734 62.5,20.5C 62.8333,20.5 63.1667,20.5 63.5,20.5C 66.3854,20.1936 69.0521,20.5269 71.5,21.5C 68.8127,21.3359 66.146,21.5026 63.5,22C 61.6491,23.7524 59.6491,25.2524 57.5,26.5C 57.1583,25.6618 56.4916,25.3284 55.5,25.5C 56.5736,24.1154 57.9069,22.9487 59.5,22C 51.5069,21.5003 43.5069,21.3336 35.5,21.5 Z"/></g>
<g><path style="opacity:0.858" fill="#283791" d="M 124.5,20.5 C 134.017,19.6847 138.017,24.018 136.5,33.5C 134.167,33.5 131.833,33.5 129.5,33.5C 129.662,31.4727 129.495,29.4727 129,27.5C 128,26.1667 127,26.1667 126,27.5C 125.5,36.8274 125.334,46.1607 125.5,55.5C 126.833,55.5 128.167,55.5 129.5,55.5C 129.5,54.1667 129.5,52.8333 129.5,51.5C 131.833,51.5 134.167,51.5 136.5,51.5C 136.573,61.1265 131.906,64.2932 122.5,61C 121.584,60.6258 120.75,60.1258 120,59.5C 119.333,47.5 119.333,35.5 120,23.5C 121.409,22.2189 122.909,21.2189 124.5,20.5 Z"/></g>
<g><path style="opacity:0.893" fill="#283791" d="M 139.5,20.5 C 141.604,20.2011 143.604,20.5344 145.5,21.5C 147.301,26.0686 148.801,30.7352 150,35.5C 150.499,30.5111 150.666,25.5111 150.5,20.5C 152.5,20.5 154.5,20.5 156.5,20.5C 156.5,34.1667 156.5,47.8333 156.5,61.5C 154.5,61.5 152.5,61.5 150.5,61.5C 150.565,54.1879 149.065,47.1879 146,40.5C 145.5,47.4921 145.334,54.4921 145.5,61.5C 143.5,61.5 141.5,61.5 139.5,61.5C 139.5,47.8333 139.5,34.1667 139.5,20.5 Z"/></g>
<g><path style="opacity:0.814" fill="#283791" d="M 158.5,20.5 C 164.167,20.5 169.833,20.5 175.5,20.5C 175.5,22.5 175.5,24.5 175.5,26.5C 173.833,26.5 172.167,26.5 170.5,26.5C 170.5,38.1667 170.5,49.8333 170.5,61.5C 168.167,61.5 165.833,61.5 163.5,61.5C 163.5,49.8333 163.5,38.1667 163.5,26.5C 161.833,26.5 160.167,26.5 158.5,26.5C 158.5,24.5 158.5,22.5 158.5,20.5 Z"/></g>
<g><path style="opacity:0.88" fill="#283791" d="M 177.5,20.5 C 181.182,20.3347 184.848,20.5014 188.5,21C 189.5,22.6667 190.5,24.3333 191.5,26C 188.854,26.4974 186.187,26.6641 183.5,26.5C 183.5,30.1667 183.5,33.8333 183.5,37.5C 185.833,37.5 188.167,37.5 190.5,37.5C 190.5,39.5 190.5,41.5 190.5,43.5C 188.167,43.5 185.833,43.5 183.5,43.5C 183.5,47.5 183.5,51.5 183.5,55.5C 186.167,55.5 188.833,55.5 191.5,55.5C 191.5,57.5 191.5,59.5 191.5,61.5C 186.833,61.5 182.167,61.5 177.5,61.5C 177.5,47.8333 177.5,34.1667 177.5,20.5 Z"/></g>
<g><path style="opacity:0.948" fill="#2f3d94" d="M 24.5,21.5 C 27.2469,21.1866 29.9135,21.52 32.5,22.5C 31.9132,25.4057 30.2465,27.0724 27.5,27.5C 25.9925,25.8185 24.9925,23.8185 24.5,21.5 Z"/></g>
<g><path style="opacity:1" fill="#2a3a92" d="M 35.5,21.5 C 43.5069,21.3336 51.5069,21.5003 59.5,22C 57.9069,22.9487 56.5736,24.1154 55.5,25.5C 52.8342,26.8421 50.5008,28.6755 48.5,31C 42.4088,32.9742 37.0755,31.6409 32.5,27C 33.0439,25.415 33.7106,23.915 34.5,22.5C 34.5,21.8333 34.8333,21.5 35.5,21.5 Z"/></g>
<g><path style="opacity:0.879" fill="#a5202e" d="M 105.5,23.5 C 105.833,45.8433 105.5,68.1766 104.5,90.5C 103.5,71.1782 103.167,51.8448 103.5,32.5C 103.177,28.774 103.511,25.1073 104.5,21.5C 105.298,21.9569 105.631,22.6236 105.5,23.5 Z"/></g>
<g><path style="opacity:1" fill="#b7b9da" d="M 77.5,21.5 C 76.325,21.281 75.325,21.6143 74.5,22.5C 76.4706,25.0267 77.1373,27.6934 76.5,30.5C 74.5675,27.6339 72.9009,24.6339 71.5,21.5C 73.6531,20.4271 75.6531,20.4271 77.5,21.5 Z"/></g>
<g><path style="opacity:0.004" fill="#fefffe" d="M 87.5,26.5 C 87.8966,25.475 88.5632,25.3083 89.5,26C 88.9056,26.4643 88.2389,26.631 87.5,26.5 Z"/></g>
<g><path style="opacity:1" fill="#e4e6f1" d="M 24.5,21.5 C 27.9792,20.01 31.3125,20.3433 34.5,22.5C 33.7106,23.915 33.0439,25.415 32.5,27C 37.0755,31.6409 42.4088,32.9742 48.5,31C 50.5008,28.6755 52.8342,26.8421 55.5,25.5C 56.4916,25.3284 57.1583,25.6618 57.5,26.5C 54.5454,29.1156 51.5454,31.7823 48.5,34.5C 51.1841,36.1933 53.8508,37.86 56.5,39.5C 55.9689,42.7668 54.9689,43.1001 53.5,40.5C 47.4014,36.3064 42.7348,37.6397 39.5,44.5C 40.8545,46.5212 42.5212,48.1879 44.5,49.5C 44.1583,50.3382 43.4916,50.6716 42.5,50.5C 40.7772,48.7819 38.7772,47.4486 36.5,46.5C 35.2271,44.2872 34.2271,41.9538 33.5,39.5C 37.168,43.0096 39.8346,42.0096 41.5,36.5C 39.2124,33.0122 35.8791,31.0122 31.5,30.5C 31.5,32.1667 31.5,33.8333 31.5,35.5C 30.3263,34.4863 29.6596,33.153 29.5,31.5C 29.7148,29.8212 29.0481,28.8212 27.5,28.5C 27.5,28.1667 27.5,27.8333 27.5,27.5C 30.2465,27.0724 31.9132,25.4057 32.5,22.5C 29.9135,21.52 27.2469,21.1866 24.5,21.5 Z"/></g>
<g><path style="opacity:0.625" fill="#334095" d="M 27.5,28.5 C 29.0481,28.8212 29.7148,29.8212 29.5,31.5C 28.5987,30.7095 27.9321,29.7095 27.5,28.5 Z"/></g>
<g><path style="opacity:1" fill="#3e4699" d="M 33.5,39.5 C 32.3263,38.4863 31.6596,37.153 31.5,35.5C 31.5,33.8333 31.5,32.1667 31.5,30.5C 35.8791,31.0122 39.2124,33.0122 41.5,36.5C 39.8346,42.0096 37.168,43.0096 33.5,39.5 Z"/></g>
<g><path style="opacity:0.017" fill="#fefffe" d="M 97.5,31.5 C 99.2252,31.8425 99.7252,32.8425 99,34.5C 97.9614,33.7562 97.4614,32.7562 97.5,31.5 Z"/></g>
<g><path style="opacity:1" fill="#303d94" d="M 71.5,21.5 C 72.9009,24.6339 74.5675,27.6339 76.5,30.5C 77.1373,27.6934 76.4706,25.0267 74.5,22.5C 75.325,21.6143 76.325,21.281 77.5,21.5C 81.5,25.8333 85.5,30.1667 89.5,34.5C 88.3328,38.147 86.1662,41.147 83,43.5C 77.575,28.8784 76.7416,29.2118 80.5,44.5C 79.2512,47.42 77.2512,49.7534 74.5,51.5C 74.8333,51.8333 75.1667,52.1667 75.5,52.5C 76.914,51.376 78.414,50.376 80,49.5C 80.49,50.7932 80.6567,52.1266 80.5,53.5C 77.1667,57.5 73.5,61.1667 69.5,64.5C 64.9385,63.424 60.6052,61.7573 56.5,59.5C 61.336,57.8686 66.336,56.3686 71.5,55C 72.7112,54.1072 72.7112,53.2739 71.5,52.5C 66.8175,55.2319 61.8175,56.3985 56.5,56C 64.6346,48.5557 69.1346,39.389 70,28.5C 69.0093,30.8076 68.176,33.1409 67.5,35.5C 64.0878,36.0421 61.0878,37.3754 58.5,39.5C 57.8333,39.5 57.1667,39.5 56.5,39.5C 53.8508,37.86 51.1841,36.1933 48.5,34.5C 51.5454,31.7823 54.5454,29.1156 57.5,26.5C 59.6491,25.2524 61.6491,23.7524 63.5,22C 66.146,21.5026 68.8127,21.3359 71.5,21.5 Z"/></g>
<g><path style="opacity:0.999" fill="#324095" d="M 90.5,35.5 C 91.7942,36.2899 92.9609,37.2899 94,38.5C 91.1949,43.4883 87.3616,47.8216 82.5,51.5C 82.3398,49.8008 82.5065,48.1341 83,46.5C 86.1377,43.2084 88.6377,39.5418 90.5,35.5 Z"/></g>
<g><path style="opacity:1" fill="#313e94" d="M 53.5,40.5 C 53.631,41.2389 53.4643,41.9056 53,42.5C 50.0019,44.6677 47.1686,47.0011 44.5,49.5C 42.5212,48.1879 40.8545,46.5212 39.5,44.5C 42.7348,37.6397 47.4014,36.3064 53.5,40.5 Z"/></g>
<g><path style="opacity:1" fill="#9d9cca" d="M 67.5,35.5 C 67.0113,36.9952 66.3446,38.3285 65.5,39.5C 65.5654,39.0618 65.3988,38.7284 65,38.5C 63.414,39.376 61.914,40.376 60.5,41.5C 61.3569,42.4252 62.3569,43.0919 63.5,43.5C 63.0679,44.7095 62.4013,45.7095 61.5,46.5C 60.8333,45.5 60.1667,44.5 59.5,43.5C 59.7678,41.901 59.4345,40.5676 58.5,39.5C 61.0878,37.3754 64.0878,36.0421 67.5,35.5 Z"/></g>
<g><path style="opacity:1" fill="#3d489a" d="M 65.5,39.5 C 65.2671,41.0618 64.6005,42.3951 63.5,43.5C 62.3569,43.0919 61.3569,42.4252 60.5,41.5C 61.914,40.376 63.414,39.376 65,38.5C 65.3988,38.7284 65.5654,39.0618 65.5,39.5 Z"/></g>
<g><path style="opacity:1" fill="#313e94" d="M 59.5,43.5 C 60.1667,44.5 60.8333,45.5 61.5,46.5C 59.3408,52.1916 55.3408,54.6916 49.5,54C 48.6266,52.955 47.6266,52.1217 46.5,51.5C 49.8297,47.1642 54.163,44.4975 59.5,43.5 Z"/></g>
<g><path style="opacity:1" fill="#c1c1de" d="M 56.5,39.5 C 57.1667,39.5 57.8333,39.5 58.5,39.5C 59.4345,40.5676 59.7678,41.901 59.5,43.5C 54.163,44.4975 49.8297,47.1642 46.5,51.5C 45.8333,51.5 45.5,51.8333 45.5,52.5C 44.0937,52.9731 43.427,53.9731 43.5,55.5C 42.8333,55.5 42.1667,55.5 41.5,55.5C 40.6618,55.1583 40.3284,54.4916 40.5,53.5C 41.9063,53.0269 42.573,52.0269 42.5,50.5C 43.4916,50.6716 44.1583,50.3382 44.5,49.5C 47.1686,47.0011 50.0019,44.6677 53,42.5C 53.4643,41.9056 53.631,41.2389 53.5,40.5C 54.9689,43.1001 55.9689,42.7668 56.5,39.5 Z"/></g>
<g><path style="opacity:0.786" fill="#303e94" d="M 36.5,46.5 C 38.7772,47.4486 40.7772,48.7819 42.5,50.5C 42.573,52.0269 41.9063,53.0269 40.5,53.5C 38.9291,51.3649 37.5957,49.0316 36.5,46.5 Z"/></g>
<g><path style="opacity:1" fill="#9696c7" d="M 89.5,34.5 C 90.1667,34.5 90.5,34.8333 90.5,35.5C 88.6377,39.5418 86.1377,43.2084 83,46.5C 82.5065,48.1341 82.3398,49.8008 82.5,51.5C 82.5,51.8333 82.5,52.1667 82.5,52.5C 81.8333,52.8333 81.1667,53.1667 80.5,53.5C 80.6567,52.1266 80.49,50.7932 80,49.5C 78.414,50.376 76.914,51.376 75.5,52.5C 75.1667,52.1667 74.8333,51.8333 74.5,51.5C 77.2512,49.7534 79.2512,47.42 80.5,44.5C 76.7416,29.2118 77.575,28.8784 83,43.5C 86.1662,41.147 88.3328,38.147 89.5,34.5 Z"/></g>
<g><path style="opacity:1" fill="#d4d5e8" d="M 56.5,59.5 C 57.3543,61.035 57.3543,62.3684 56.5,63.5C 55.8658,62.0532 54.6991,61.3866 53,61.5C 50.4352,62.2403 48.2685,63.5737 46.5,65.5C 45.6618,65.1583 45.3284,64.4916 45.5,63.5C 46.4787,61.8546 47.812,60.5213 49.5,59.5C 47.4902,57.8287 45.1569,57.162 42.5,57.5C 41.6618,57.1583 41.3284,56.4916 41.5,55.5C 42.1667,55.5 42.8333,55.5 43.5,55.5C 50.3648,57.3309 51.0315,56.3309 45.5,52.5C 45.5,51.8333 45.8333,51.5 46.5,51.5C 47.6266,52.1217 48.6266,52.955 49.5,54C 55.3408,54.6916 59.3408,52.1916 61.5,46.5C 62.4013,45.7095 63.0679,44.7095 63.5,43.5C 64.6005,42.3951 65.2671,41.0618 65.5,39.5C 66.3446,38.3285 67.0113,36.9952 67.5,35.5C 68.176,33.1409 69.0093,30.8076 70,28.5C 69.1346,39.389 64.6346,48.5557 56.5,56C 61.8175,56.3985 66.8175,55.2319 71.5,52.5C 72.7112,53.2739 72.7112,54.1072 71.5,55C 66.336,56.3686 61.336,57.8686 56.5,59.5 Z"/></g>
<g><path style="opacity:1" fill="#4e56a2" d="M 45.5,52.5 C 51.0315,56.3309 50.3648,57.3309 43.5,55.5C 43.427,53.9731 44.0937,52.9731 45.5,52.5 Z"/></g>
<g><path style="opacity:0.039" fill="#fefefe" d="M 82.5,52.5 C 78.6173,58.0557 73.9507,63.0557 68.5,67.5C 68.5,67.1667 68.5,66.8333 68.5,66.5C 68.8333,65.8333 69.1667,65.1667 69.5,64.5C 73.5,61.1667 77.1667,57.5 80.5,53.5C 81.1667,53.1667 81.8333,52.8333 82.5,52.5 Z"/></g>
<g><path style="opacity:0.827" fill="#2f3d94" d="M 42.5,57.5 C 45.1569,57.162 47.4902,57.8287 49.5,59.5C 47.812,60.5213 46.4787,61.8546 45.5,63.5C 43.9925,61.8185 42.9925,59.8185 42.5,57.5 Z"/></g>
<g><path style="opacity:0.962" fill="#2f3d93" d="M 56.5,63.5 C 59.3109,67.6309 59.1442,71.6309 56,75.5C 54.0065,74.086 51.8398,73.086 49.5,72.5C 48.2271,70.2872 47.2271,67.9538 46.5,65.5C 48.2685,63.5737 50.4352,62.2403 53,61.5C 54.6991,61.3866 55.8658,62.0532 56.5,63.5 Z"/></g>
<g><path style="opacity:1" fill="#424b9c" d="M 67.5,66.5 C 67.5,66.8333 67.5,67.1667 67.5,67.5C 65.1667,69.5 62.8333,71.5 60.5,73.5C 59.764,70.3046 59.0973,66.9713 58.5,63.5C 58.8333,63.1667 59.1667,62.8333 59.5,62.5C 62.2585,63.8793 64.9252,65.2126 67.5,66.5 Z"/></g>
<g><path style="opacity:0.641" fill="#a31d2b" d="M 137.5,70.5 C 138.222,70.9175 138.722,71.5842 139,72.5C 139.308,71.6919 139.808,71.0253 140.5,70.5C 141.167,72.5 141.833,74.5 142.5,76.5C 144.79,74.033 146.957,74.033 149,76.5C 151.034,75.2566 151.867,73.7566 151.5,72C 152.332,71.3123 152.998,71.479 153.5,72.5C 155.891,77.7254 154.224,80.2254 148.5,80C 151.028,80.9978 151.028,81.8311 148.5,82.5C 145.504,82.3526 143.338,81.0192 142,78.5C 137.104,79.0443 132.104,80.0443 127,81.5C 124.113,80.896 121.28,80.2293 118.5,79.5C 118.887,76.7465 119.221,74.2465 119.5,72C 121.074,71.3013 122.407,71.6346 123.5,73C 122.159,76.2617 122.492,76.7617 124.5,74.5C 125.478,74.9767 126.311,75.6433 127,76.5C 130.441,75.0046 133.941,73.0046 137.5,70.5 Z M 129.5,77.5 C 130.713,78.4971 130.546,79.4971 129,80.5C 128.53,79.4232 128.697,78.4232 129.5,77.5 Z"/></g>
<g><path style="opacity:0.668" fill="#a31d2b" d="M 161.5,75.5 C 163.522,74.493 164.855,72.8263 165.5,70.5C 166.149,72.6241 166.983,74.6241 168,76.5C 170.426,73.1699 172.926,73.0033 175.5,76C 180.516,76.7246 184.182,74.8912 186.5,70.5C 187.308,72.4233 187.808,74.4233 188,76.5C 190.421,74.8866 192.921,73.5533 195.5,72.5C 195.343,73.8734 195.51,75.2068 196,76.5C 198.014,74.8171 199.68,72.8171 201,70.5C 201.49,71.7932 201.657,73.1266 201.5,74.5C 205.007,73.9935 208.174,74.6602 211,76.5C 212.914,75.324 212.748,74.324 210.5,73.5C 212.672,72.7952 214.672,71.7952 216.5,70.5C 217.308,72.4233 217.808,74.4233 218,76.5C 218.192,74.4233 218.692,72.4233 219.5,70.5C 220.149,72.6241 220.983,74.6241 222,76.5C 224.16,73.9194 226.326,73.9194 228.5,76.5C 229.59,75.6086 229.59,74.6086 228.5,73.5C 229.325,72.6143 230.325,72.281 231.5,72.5C 231.238,73.9778 231.571,75.3112 232.5,76.5C 233.167,74.5 233.833,72.5 234.5,70.5C 235.429,71.6888 235.762,73.0222 235.5,74.5C 240.211,74.2816 244.878,74.6149 249.5,75.5C 252.181,75.1519 253.847,73.6519 254.5,71C 255.793,70.51 257.127,70.3433 258.5,70.5C 258.75,73.214 258.917,75.8806 259,78.5C 258,79.8333 257,79.8333 256,78.5C 254.323,79.5159 252.657,80.5159 251,81.5C 250.747,80.4655 249.914,79.4655 248.5,78.5C 241.55,79.2981 234.55,79.7981 227.5,80C 230.028,80.9978 230.028,81.8311 227.5,82.5C 223.919,82.5008 221.752,80.8341 221,77.5C 211.757,79.294 202.257,80.1273 192.5,80C 191.975,80.6924 191.308,81.1924 190.5,81.5C 189.719,80.2634 188.719,79.2634 187.5,78.5C 185.571,79.3802 183.737,80.3802 182,81.5C 181.454,80.7107 180.787,79.7107 180,78.5C 178.253,79.3301 176.587,80.3301 175,81.5C 174.05,80.9777 173.216,80.311 172.5,79.5C 171.672,80.4147 170.672,81.0814 169.5,81.5C 167.653,80.489 165.82,79.489 164,78.5C 161.281,79.4438 158.448,79.7771 155.5,79.5C 155.343,78.1266 155.51,76.7932 156,75.5C 157.943,76.807 159.777,76.807 161.5,75.5 Z"/></g>
<g><path style="opacity:0.658" fill="#a31d2b" d="M 268.5,70.5 C 269.434,71.5676 269.768,72.901 269.5,74.5C 273.287,74.78 276.953,74.78 280.5,74.5C 281.192,75.0253 281.692,75.6919 282,76.5C 282.308,75.6919 282.808,75.0253 283.5,74.5C 284.736,75.2458 286.07,75.5792 287.5,75.5C 286.833,71.5 288.5,69.8333 292.5,70.5C 293.013,73.4485 293.013,76.2819 292.5,79C 289.95,78.8722 287.283,79.3722 284.5,80.5C 283.558,80.3918 282.725,80.0585 282,79.5C 278.99,82.3883 277.657,82.055 278,78.5C 271.701,79.1692 265.535,80.0025 259.5,81C 260.357,80.3109 261.023,79.4776 261.5,78.5C 260.943,76.7648 260.61,75.0982 260.5,73.5C 261.325,72.6143 262.325,72.281 263.5,72.5C 263.343,73.8734 263.51,75.2068 264,76.5C 266.07,74.9297 267.57,72.9297 268.5,70.5 Z"/></g>
<g><path style="opacity:0.548" fill="#a31d2b" d="M 161.5,75.5 C 160.022,75.762 158.689,75.4287 157.5,74.5C 158.167,74.1667 158.833,73.8333 159.5,73.5C 160.713,73.7472 161.38,74.4138 161.5,75.5 Z"/></g>
<g><path style="opacity:1" fill="#aeaed4" d="M 56.5,59.5 C 60.6052,61.7573 64.9385,63.424 69.5,64.5C 69.1667,65.1667 68.8333,65.8333 68.5,66.5C 68.1667,66.5 67.8333,66.5 67.5,66.5C 64.9252,65.2126 62.2585,63.8793 59.5,62.5C 59.1667,62.8333 58.8333,63.1667 58.5,63.5C 59.0973,66.9713 59.764,70.3046 60.5,73.5C 59.1667,75.5 57.5,77.1667 55.5,78.5C 54.9653,76.5544 53.632,75.5544 51.5,75.5C 51.1667,74.5 50.5,73.8333 49.5,73.5C 49.5,73.1667 49.5,72.8333 49.5,72.5C 51.8398,73.086 54.0065,74.086 56,75.5C 59.1442,71.6309 59.3109,67.6309 56.5,63.5C 57.3543,62.3684 57.3543,61.035 56.5,59.5 Z"/></g>
<g><path style="opacity:0.012" fill="#e6e5f2" d="M 67.5,67.5 C 67.8333,67.5 68.1667,67.5 68.5,67.5C 64.8305,73.3355 59.9972,78.0022 54,81.5C 50.8333,79.6667 48.3333,77.1667 46.5,74C 47.448,73.5172 48.448,73.3505 49.5,73.5C 50.5,73.8333 51.1667,74.5 51.5,75.5C 52.0283,76.7206 52.695,77.8873 53.5,79C 54.4368,79.6917 55.1034,79.525 55.5,78.5C 57.5,77.1667 59.1667,75.5 60.5,73.5C 62.8333,71.5 65.1667,69.5 67.5,67.5 Z"/></g>
<g><path style="opacity:0.93" fill="#414c9c" d="M 51.5,75.5 C 53.632,75.5544 54.9653,76.5544 55.5,78.5C 55.1034,79.525 54.4368,79.6917 53.5,79C 52.695,77.8873 52.0283,76.7206 51.5,75.5 Z"/></g>
<g><path style="opacity:0.474" fill="#a31d2b" d="M 158.5,83.5 C 159.468,85.6074 159.802,87.9407 159.5,90.5C 156.5,90.5 153.5,90.5 150.5,90.5C 150.5,88.8333 150.5,87.1667 150.5,85.5C 151.822,85.33 152.989,85.6634 154,86.5C 155.57,85.4514 157.07,84.4514 158.5,83.5 Z"/></g>
<g><path style="opacity:0.797" fill="#a31d2b" d="M 174.5,83.5 C 175.216,85.5563 175.883,87.723 176.5,90C 176.167,90.1667 175.833,90.3333 175.5,90.5C 174.526,88.2573 174.192,85.924 174.5,83.5 Z"/></g>
<g><path style="opacity:0.48" fill="#a31d2b" d="M 181.5,83.5 C 182.931,83.8807 183.764,84.8807 184,86.5C 186.5,86.4567 189,86.1234 191.5,85.5C 191.5,87.1667 191.5,88.8333 191.5,90.5C 187.486,90.6655 183.486,90.4988 179.5,90C 178.978,89.4387 178.645,88.772 178.5,88C 179.555,86.4928 180.555,84.9928 181.5,83.5 Z"/></g>
<g><path style="opacity:0.492" fill="#a31d2b" d="M 205.5,83.5 C 208.531,84.8428 211.697,85.8428 215,86.5C 216.333,85.1667 217.667,85.1667 219,86.5C 220,82.5 221,82.5 222,86.5C 225,86.5 228,86.5 231,86.5C 232.377,82.7351 233.377,83.0684 234,87.5C 235.333,84.8333 236.667,84.8333 238,87.5C 238.71,86.0267 239.876,85.3601 241.5,85.5C 241.5,87.1667 241.5,88.8333 241.5,90.5C 239.876,90.6399 238.71,89.9733 238,88.5C 236.667,91.1667 235.333,91.1667 234,88.5C 232.303,90.6321 230.136,91.9654 227.5,92.5C 227.719,91.325 227.386,90.325 226.5,89.5C 221.324,89.5111 215.99,89.8444 210.5,90.5C 210.167,85.1667 209.833,85.1667 209.5,90.5C 205.5,90.5 201.5,90.5 197.5,90.5C 197.404,86.6893 196.738,86.6893 195.5,90.5C 194.167,88.5 194.167,86.5 195.5,84.5C 197.5,85.1667 199.5,85.8333 201.5,86.5C 203.483,86.1852 204.816,85.1852 205.5,83.5 Z"/></g>
<g><path style="opacity:0.512" fill="#a31d2b" d="M 258.5,83.5 C 259.268,84.2625 259.768,85.2625 260,86.5C 261.493,84.6524 263.326,83.8191 265.5,84C 264.577,86.0408 264.244,88.2075 264.5,90.5C 261.728,89.6285 259.062,89.6285 256.5,90.5C 256.185,87.7892 256.852,85.4559 258.5,83.5 Z"/></g>
<g><path style="opacity:0.496" fill="#a31d2b" d="M 281.5,83.5 C 282.931,83.8807 283.764,84.8807 284,86.5C 286.742,86.7253 289.576,86.3919 292.5,85.5C 292.5,87.1667 292.5,88.8333 292.5,90.5C 289.097,89.8794 285.764,89.8794 282.5,90.5C 281.526,88.2573 281.192,85.924 281.5,83.5 Z"/></g>
<g><path style="opacity:0.525" fill="#a31d2b" d="M 118.5,84.5 C 121.545,84.3418 124.379,85.0085 127,86.5C 128.356,85.6198 129.856,85.2865 131.5,85.5C 131.66,87.1992 131.494,88.8659 131,90.5C 130.193,86.551 129.693,86.551 129.5,90.5C 126.15,90.665 122.817,90.4983 119.5,90C 118.594,88.3005 118.261,86.4672 118.5,84.5 Z M 120.5,85.5 C 124.31,86.7542 124.31,87.7542 120.5,88.5C 120.5,87.5 120.5,86.5 120.5,85.5 Z"/></g>
<g><path style="opacity:0.482" fill="#a31d2b" d="M 132.5,84.5 C 135.888,85.8699 139.221,86.2033 142.5,85.5C 142.5,87.1667 142.5,88.8333 142.5,90.5C 140.089,90.8633 138.589,89.8633 138,87.5C 137,91.5 136,91.5 135,87.5C 134.751,88.624 134.251,89.624 133.5,90.5C 132.534,88.604 132.201,86.604 132.5,84.5 Z"/></g>
<g><path style="opacity:0.511" fill="#a31d2b" d="M 278.5,84.5 C 279.693,84.9704 280.36,85.9704 280.5,87.5C 280.167,88.5 279.833,89.5 279.5,90.5C 278.534,88.604 278.201,86.604 278.5,84.5 Z"/></g>
<g><path style="opacity:0.555" fill="#a31d2b" d="M 145.5,85.5 C 146.833,85.5 148.167,85.5 149.5,85.5C 149.66,87.1992 149.494,88.8659 149,90.5C 148.431,86.6395 147.598,86.6395 146.5,90.5C 145.548,88.9547 145.215,87.288 145.5,85.5 Z"/></g>
<g><path style="opacity:0.53" fill="#a31d2b" d="M 160.5,85.5 C 164.936,85.9423 169.269,85.9423 173.5,85.5C 173.5,87.1667 173.5,88.8333 173.5,90.5C 171.5,90.5 169.5,90.5 167.5,90.5C 167.307,86.551 166.807,86.551 166,90.5C 165.182,85.2063 164.682,85.2063 164.5,90.5C 163.167,90.5 161.833,90.5 160.5,90.5C 160.5,88.8333 160.5,87.1667 160.5,85.5 Z"/></g>
<g><path style="opacity:0.531" fill="#a31d2b" d="M 245.5,85.5 C 248.119,85.2317 250.619,85.565 253,86.5C 253.781,87.9437 253.614,89.277 252.5,90.5C 251.402,86.6395 250.569,86.6395 250,90.5C 249.182,85.2063 248.682,85.2063 248.5,90.5C 244.716,90.4747 243.716,88.8081 245.5,85.5 Z"/></g>
<g><path style="opacity:0.512" fill="#a31d2b" d="M 265.5,85.5 C 267.824,85.9949 269.991,85.9949 272,85.5C 272.945,85.9054 273.612,86.572 274,87.5C 274.71,86.0267 275.876,85.3601 277.5,85.5C 277.5,87.1667 277.5,88.8333 277.5,90.5C 273.523,90.2933 269.523,90.2933 265.5,90.5C 265.5,88.8333 265.5,87.1667 265.5,85.5 Z"/></g>
<g><path style="opacity:0.004" fill="#fefffe" d="M 27.5,90.5 C 28.8333,91.1667 28.8333,91.1667 27.5,90.5 Z"/></g>
</svg>
